<?xml version="1.0" encoding="UTF-8" standalone="no"?>
<!-- Created with Inkscape (http://www.inkscape.org/) -->

<svg
   width="200mm"
   height="200mm"
   viewBox="0 0 200 200"
   version="1.1"
   id="svg1"
   inkscape:version="1.4.3 (0d15f75, 2025-12-25)"
   sodipodi:docname="logo.svg"
   xmlns:inkscape="http://www.inkscape.org/namespaces/inkscape"
   xmlns:sodipodi="http://sodipodi.sourceforge.net/DTD/sodipodi-0.dtd"
   xmlns="http://www.w3.org/2000/svg"
   xmlns:svg="http://www.w3.org/2000/svg">
  <sodipodi:namedview
     id="namedview1"
     pagecolor="#ffffff"
     bordercolor="#000000"
     borderopacity="0.25"
     inkscape:showpageshadow="2"
     inkscape:pageopacity="0.0"
     inkscape:pagecheckerboard="true"
     inkscape:deskcolor="#d1d1d1"
     inkscape:document-units="mm"
     inkscape:zoom="1.1149729"
     inkscape:cx="367.27351"
     inkscape:cy="364.58286"
     inkscape:window-width="1920"
     inkscape:window-height="1129"
     inkscape:window-x="-8"
     inkscape:window-y="-8"
     inkscape:window-maximized="1"
     inkscape:current-layer="layer1" />
  <defs
     id="defs1">
    <inkscape:path-effect
       effect="mirror_symmetry"
       start_point="111.51851,69.93878"
       end_point="111.51851,183.14798"
       center_point="111.51851,126.54338"
       id="path-effect1"
       is_visible="true"
       lpeversion="1.2"
       lpesatellites="#path2"
       mode="free"
       discard_orig_path="false"
       fuse_paths="false"
       oposite_fuse="false"
       split_items="true"
       split_open="false"
       link_styles="false" />
  </defs>
  <g
     inkscape:label="Шар 1"
     inkscape:groupmode="layer"
     id="layer1">
    <path
       style="fill:#5c524e;stroke-width:0.264583"
       d="m 116.03982,182.48388 c -6.35479,4.30309 -60.742633,-6.1235 -75.461479,-22.06892 -3.435943,-3.72227 -5.171289,-10.31473 -5.457907,-15.18721 -0.106704,-1.81397 -0.0728,-3.64845 -0.237299,-5.45791 -0.07303,-0.80335 -1.044999,-2.9434 -0.474599,-2.373 0.664196,0.6642 10.004845,7.76193 9.017407,5.4579 -7.122226,-16.61852 -6.296845,-28.93384 1.423802,-44.375142 2.042384,-4.102527 5.986314,17.024452 11.153111,18.746722 0.05879,0.0196 -9.732666,-18.980671 18.034819,-46.748149 10.707357,-10.707363 23.376767,32.576419 25.391124,31.798229 13.712971,-5.297593 15.435651,0.005 32.510131,7.11902 1.42044,0.59185 -14.47531,-2.23445 -14.47531,1.42379"
       id="path1"
       sodipodi:nodetypes="cssssscssssc"
       inkscape:path-effect="#path-effect1"
       inkscape:original-d="m 116.03982,182.48388 c -6.35479,4.30309 -60.742633,-6.1235 -75.461479,-22.06892 -3.435943,-3.72227 -5.171289,-10.31473 -5.457907,-15.18721 -0.106704,-1.81397 -0.0728,-3.64845 -0.237299,-5.45791 -0.07303,-0.80335 -1.044999,-2.9434 -0.474599,-2.373 0.664196,0.6642 10.004845,7.76193 9.017407,5.4579 -7.122226,-16.61852 -6.296845,-28.93384 1.423802,-44.375142 2.042384,-4.102527 5.986314,17.024452 11.153111,18.746722 0.05879,0.0196 -9.732666,-18.980671 18.034819,-46.748149 10.707357,-10.707363 23.376767,32.576419 25.391124,31.798229 13.712971,-5.297593 15.435651,0.005 32.510131,7.11902 1.42044,0.59185 -14.47531,-2.23445 -14.47531,1.42379"
       transform="matrix(1.2225979,0,0,1.2225979,-36.570144,-55.17541)" />
    <path
       id="path2"
       d="m 116.03982,182.48388 c -6.35479,4.30309 -60.742633,-6.1235 -75.461479,-22.06892 -3.435943,-3.72227 -5.171289,-10.31473 -5.457907,-15.18721 -0.106704,-1.81397 -0.0728,-3.64845 -0.237299,-5.45791 -0.07303,-0.80335 -1.044999,-2.9434 -0.474599,-2.373 0.664196,0.6642 10.004845,7.76193 9.017407,5.4579 -7.122226,-16.61852 -6.296845,-28.93384 1.423802,-44.375142 2.042384,-4.102527 5.986314,17.024452 11.153111,18.746722 0.05879,0.0196 -9.732666,-18.980671 18.034819,-46.748149 10.707357,-10.707363 23.376767,32.576419 25.391124,31.798229 13.712971,-5.297593 15.435651,0.005 32.510131,7.11902 1.42044,0.59185 -14.47531,-2.23445 -14.47531,1.42379"
       style="fill:#5c524e;stroke-width:0.264583"
       transform="matrix(-1.2225979,0,0,1.2225979,236.11445,-55.17541)"
       sodipodi:nodetypes="cssssscssssc" />
    <path
       style="fill:#ffffff;fill-opacity:1;stroke-width:0.273951"
       d="m 89.923389,128.98022 c -3.43984,-20.639 -10.810897,-25.55304 -23.096001,-26.04444 -12.285102,-0.49139 -28.255734,4.91405 -28.255734,4.91405 0,0 11.234099,19.93786 15.479227,18.67336 11.547997,-3.43983 35.872508,2.45703 35.872508,2.45703 z"
       id="path3"
       sodipodi:nodetypes="cscsc" />
    <path
       style="fill:#ffffff;fill-opacity:1;stroke-width:0.273951"
       d="m 111.10234,128.98022 c 3.43984,-20.639 10.81091,-25.55304 23.09601,-26.04444 12.28509,-0.49139 28.25573,4.91405 28.25573,4.91405 0,0 -11.2341,19.93786 -15.47923,18.67336 -11.548,-3.43983 -35.87251,2.45703 -35.87251,2.45703 z"
       id="path4"
       sodipodi:nodetypes="cscsc" />
  </g>
</svg>
